<?xml version="1.0" encoding="iso-8859-1"?>
<!-- Uploaded to: SVG Repo, www.svgrepo.com, Generator: SVG Repo Mixer Tools -->
<!DOCTYPE svg PUBLIC "-//W3C//DTD SVG 1.1//EN" "http://www.w3.org/Graphics/SVG/1.1/DTD/svg11.dtd">
<svg fill="#000000" version="1.1" id="Capa_1" xmlns="http://www.w3.org/2000/svg" xmlns:xlink="http://www.w3.org/1999/xlink" 
	 width="800px" height="800px" viewBox="0 0 74.364 74.364"
	 xml:space="preserve">
<g>
	<g>
		<path d="M72.123,42.782H59.58c0-0.896,0-1.791,0-2.688c0-1.12,0-2.017-0.227-2.912c7.617-1.567,13.666-9.856,13.666-19.937
			c0-1.344-0.896-2.238-2.24-2.238s-2.239,0.896-2.239,2.238c0,8.064-4.479,14.562-10.526,15.457
			c-1.121-1.567-2.465-2.017-4.257-2.017c-0.448-6.495-3.36-11.872-7.616-15.231c2.912-2.465,4.93-6.271,4.93-10.527
			c0-1.346-0.896-2.24-2.239-2.24c-1.345,0-2.24,0.896-2.24,2.24c0,3.359-1.792,6.496-4.704,8.062
			c-1.566-0.672-3.136-0.896-4.704-0.896c-1.566,0-3.136,0.224-4.704,0.896c-2.688-1.566-4.704-4.703-4.704-8.062
			c0-1.346-0.896-2.24-2.238-2.24c-1.346,0-2.24,0.896-2.24,2.24c0,4.256,1.792,8.062,4.928,10.527
			c-4.031,3.359-6.942,8.959-7.616,15.231c-1.792,0-3.358,0.673-4.256,2.017c-6.048-0.896-10.526-7.393-10.526-15.457
			c0-1.344-0.896-2.238-2.24-2.238c-1.344,0-2.24,0.896-2.24,2.238c0,9.856,5.824,18.146,13.664,19.938
			c0,0.896-0.224,1.792-0.224,2.912c0,0.896,0,1.792,0,2.688H2.24c-1.346,0-2.24,0.896-2.24,2.24s0.896,2.24,2.24,2.24h13.216
			c0.448,1.792,0.896,3.809,1.566,5.376c-8.287,1.12-14.782,8.063-14.782,16.8c0,1.344,0.896,2.24,2.238,2.24
			c1.346,0,2.24-0.896,2.24-2.24c0-6.943,5.602-12.544,12.544-12.544l0,0c4.032,6.72,10.528,11.2,17.92,11.2
			c7.394,0,13.664-4.48,17.919-11.2l0,0c6.943,0,12.545,5.601,12.545,12.544c0,1.344,0.896,2.24,2.24,2.24
			c1.344,0,2.238-0.896,2.238-2.24c0-8.512-6.496-15.68-14.783-16.8c0.672-1.792,1.344-3.584,1.568-5.376h13.215
			c1.346,0,2.239-0.896,2.239-2.24S73.244,42.782,72.123,42.782z M52.412,46.588h-4.705c-0.672,4.703-4.256,8.287-8.959,8.961v4.703
			c0,0.896-0.672,1.568-1.568,1.568s-1.566-0.674-1.566-1.568v-4.703c-4.704-0.674-8.288-4.258-8.96-8.961h-4.705
			c-0.896,0-1.568-0.672-1.568-1.567s0.672-1.567,1.568-1.567h4.704c0.672-4.703,4.256-8.288,8.96-8.959v-4.705
			c0-0.896,0.672-1.566,1.566-1.566c0.896,0,1.568,0.672,1.568,1.566v4.705c4.703,0.672,8.287,4.256,8.959,8.959h4.705
			c0.896,0,1.565,0.672,1.565,1.567S53.309,46.588,52.412,46.588z"/>
		<g>
			<path d="M29.788,43.454h6.048v-6.049C32.701,38.079,30.237,40.54,29.788,43.454z"/>
			<path d="M38.748,52.415c2.912-0.672,5.375-2.912,6.048-6.049h-6.048V52.415z"/>
			<path d="M38.748,37.404v6.049h6.048C44.123,40.54,41.66,38.079,38.748,37.404z"/>
			<path d="M35.613,52.415v-6.049h-6.05C30.237,49.5,32.701,51.965,35.613,52.415z"/>
		</g>
	</g>
</g>
</svg>