<?xml version="1.0" encoding="iso-8859-1"?>
<!-- Uploaded to: SVG Repo, www.svgrepo.com, Generator: SVG Repo Mixer Tools -->
<svg fill="#000000" height="800px" width="800px" version="1.1" id="Layer_1" xmlns="http://www.w3.org/2000/svg" xmlns:xlink="http://www.w3.org/1999/xlink" 
	 viewBox="0 0 512 512" xml:space="preserve">
<g>
	<g>
		<g>
			<path d="M415.458,151.167H96.542c-6.576,0-11.907,5.331-11.907,11.907V494.14c0,9.864,7.997,17.86,17.86,17.86h307.009
				c9.864,0,17.86-7.997,17.86-17.86V163.074C427.365,156.498,422.034,151.167,415.458,151.167z M277.077,454.308H165.155
				c-4.932,0-8.93-3.998-8.93-8.93c0-4.932,3.998-8.93,8.93-8.93h111.922c4.932,0,8.93,3.998,8.93,8.93
				C286.007,450.31,282.008,454.308,277.077,454.308z M277.077,378.445H165.155c-4.932,0-8.93-3.998-8.93-8.93
				c0-4.932,3.998-8.93,8.93-8.93h111.922c4.932,0,8.93,3.998,8.93,8.93C286.007,374.447,282.008,378.445,277.077,378.445z
				 M277.077,302.582H165.155c-4.932,0-8.93-3.998-8.93-8.93s3.998-8.93,8.93-8.93h111.922c4.932,0,8.93,3.998,8.93,8.93
				S282.008,302.582,277.077,302.582z M277.077,226.72H165.155c-4.932,0-8.93-3.998-8.93-8.93s3.998-8.93,8.93-8.93h111.922
				c4.932,0,8.93,3.998,8.93,8.93S282.008,226.72,277.077,226.72z M346.845,454.308h-14.535c-4.932,0-8.93-3.998-8.93-8.93
				c0-4.932,3.998-8.93,8.93-8.93h14.535c4.932,0,8.93,3.998,8.93,8.93C355.776,450.31,351.777,454.308,346.845,454.308z
				 M346.845,378.445h-14.535c-4.932,0-8.93-3.998-8.93-8.93c0-4.932,3.998-8.93,8.93-8.93h14.535c4.932,0,8.93,3.998,8.93,8.93
				C355.776,374.447,351.777,378.445,346.845,378.445z M346.845,302.582h-14.535c-4.932,0-8.93-3.998-8.93-8.93
				s3.998-8.93,8.93-8.93h14.535c4.932,0,8.93,3.998,8.93,8.93S351.777,302.582,346.845,302.582z M346.845,226.72h-14.535
				c-4.932,0-8.93-3.998-8.93-8.93s3.998-8.93,8.93-8.93h14.535c4.932,0,8.93,3.998,8.93,8.93S351.777,226.72,346.845,226.72z"/>
			<path d="M436.605,44.223h-121.14C307.776,18.668,284.028,0,256,0s-51.776,18.668-59.465,44.223H75.395
				c-9.864,0-17.86,7.997-17.86,17.86V121.4c0,6.576,5.331,11.907,11.907,11.907h373.117c6.576,0,11.907-5.331,11.907-11.907V62.083
				C454.465,52.219,446.469,44.223,436.605,44.223z"/>
		</g>
	</g>
</g>
</svg>